<svg xmlns="http://www.w3.org/2000/svg" viewBox="0 0 100 100"><path d="M87.234 55.551c.3-.616.566-1.264.796-1.943 2.633-7.77-1.349-17.078-9.733-19.325-.906-11.383-8.906-19.193-17.941-20.525-10.341-1.525-19.814 5.044-22.966 15.485-3.799-1.346-7.501-1.182-10.99.857-1.583.732-3.031 1.812-4.33 3.233-1.907 2.086-3.147 4.719-3.652 7.495-.748.118-1.483.236-2.176.484-4.04 1.449-6.589 4.431-7.288 8.923-.435 2.797.443 5.587.933 6.714 1.935 4.455 6.422 6.98 10.981 6.312.227-.033.557.069.752.233.241 7.12 3.698 13.417 8.884 17.014 8.321 5.772 19.027 3.994 25.781-3.921 2.894 2.96 6.338 4.398 10.384 3.876 4.023-.519 7.147-2.739 9.426-6.349 1.053.283 2.051.691 3.083.804 4.042.442 7.297-1.184 9.732-4.8.083-.124.203-.219.306-.328l1.044-2.394c.155-1.211.429-2.423.443-3.632.039-3.256-1.292-6.224-3.469-8.213z" fill="#c8ede6"/><path d="M43.899 24h-10.03a.5.5 0 0 1 0-1h10.03a.5.5 0 0 1 0 1zm3.381-.5a.5.5 0 0 0-.5-.5h-1.446a.5.5 0 0 0 0 1h1.446a.5.5 0 0 0 .5-.5zm4.055 0a.5.5 0 0 0-.5-.5h-2.546a.5.5 0 0 0 0 1h2.546a.5.5 0 0 0 .5-.5zm0 2a.5.5 0 0 0-.5-.5h-9.616a.5.5 0 0 0 0 1h9.616a.5.5 0 0 0 .5-.5zm-11.348 0a.5.5 0 0 0-.5-.5h-.58a.5.5 0 0 0 0 1h.58a.5.5 0 0 0 .5-.5zm-2.376 0a.5.5 0 0 0-.5-.5h-1.457a.5.5 0 0 0 0 1h1.457a.5.5 0 0 0 .5-.5zm9.135-4a.5.5 0 0 0-.5-.5h-5.027a.5.5 0 0 0 0 1h5.027a.5.5 0 0 0 .5-.5zm0-2a.5.5 0 0 0-.5-.5h-1.257a.5.5 0 0 0 0 1h1.257a.5.5 0 0 0 .5-.5zm-3.269 8a.5.5 0 0 0-.5-.5h-1.758a.5.5 0 0 0 0 1h1.758a.5.5 0 0 0 .5-.5zM86.744 64h-10.03a.5.5 0 0 1 0-1h10.031a.5.5 0 1 1-.001 1zm3.381-.5a.5.5 0 0 0-.5-.5h-1.446a.5.5 0 0 0 0 1h1.446a.5.5 0 0 0 .5-.5zm4.055 0a.5.5 0 0 0-.5-.5h-2.546a.5.5 0 0 0 0 1h2.546a.5.5 0 0 0 .5-.5zm-2.026-4a.5.5 0 0 0-.5-.5h-9.616a.5.5 0 0 0 0 1h9.616a.5.5 0 0 0 .5-.5zm-11.348 0a.5.5 0 0 0-.5-.5h-.58a.5.5 0 0 0 0 1h.58a.5.5 0 0 0 .5-.5zm-2.377 0a.5.5 0 0 0-.5-.5h-1.456a.5.5 0 0 0 0 1h1.456a.5.5 0 0 0 .5-.5zm11.162 2a.5.5 0 0 0-.5-.5h-5.027a.5.5 0 0 0 0 1h5.027a.5.5 0 0 0 .5-.5zm0-2a.5.5 0 0 0-.5-.5h-1.257a.5.5 0 0 0 0 1h1.257a.5.5 0 0 0 .5-.5zm-6.483 2a.5.5 0 0 0-.5-.5H80.85a.5.5 0 0 0 0 1h1.758a.5.5 0 0 0 .5-.5z" fill="#fff"/><path d="M73.674 41.423H61.912a4.888 4.888 0 0 1-1.004-9.673 5.004 5.004 0 0 1-.043-.628 5.063 5.063 0 0 1 5.063-5.063c1.651 0 3.113.794 4.037 2.017a5.584 5.584 0 0 1 6.27-5.116c2.379.291 4.346 2.13 4.784 4.486.14.756.126 1.489-.014 2.177a3.479 3.479 0 0 1 2.557-1.119 3.49 3.49 0 0 1 3.48 3.261 4.686 4.686 0 0 1 2.717.188c1.84.691 3.15 2.423 3.227 4.387a4.89 4.89 0 0 1-4.885 5.085H76.832" fill="#fdfcef"/><path d="M61.912 41.923h11.762a.5.5 0 0 0 0-1H61.912a4.394 4.394 0 0 1-4.389-4.389 4.405 4.405 0 0 1 3.486-4.295.5.5 0 0 0 .394-.552 4.595 4.595 0 0 1-.039-.565 4.567 4.567 0 0 1 4.562-4.563 4.53 4.53 0 0 1 3.638 1.818.499.499 0 1 0 .897-.263 5.11 5.11 0 0 1 1.85-3.549 5.059 5.059 0 0 1 3.86-1.109c2.166.266 3.956 1.943 4.353 4.081.124.667.12 1.335-.013 1.986a.5.5 0 0 0 .857.44 2.964 2.964 0 0 1 2.19-.959 2.996 2.996 0 0 1 2.981 2.794c.01.146.082.279.199.366.117.089.268.12.408.089a4.17 4.17 0 0 1 2.433.167c1.669.627 2.835 2.209 2.903 3.938a4.36 4.36 0 0 1-1.221 3.218 4.351 4.351 0 0 1-3.164 1.348H76.828a.5.5 0 0 0 0 1h11.271a5.346 5.346 0 0 0 3.884-1.654 5.348 5.348 0 0 0 1.5-3.95c-.083-2.126-1.51-4.069-3.55-4.835a5.198 5.198 0 0 0-2.468-.299 4.001 4.001 0 0 0-3.905-3.182 3.99 3.99 0 0 0-1.944.51c0-.386-.035-.772-.106-1.159-.477-2.562-2.621-4.573-5.215-4.891a6.059 6.059 0 0 0-4.616 1.328 6.132 6.132 0 0 0-2.038 3.193 5.502 5.502 0 0 0-3.714-1.426 5.569 5.569 0 0 0-5.555 5.811 5.412 5.412 0 0 0-3.848 5.164 5.392 5.392 0 0 0 5.388 5.389z" fill="#472b29"/><path d="M76.507 30.655c1.808-.119 3.365 1.13 3.476 2.789.014.206.005.409-.025.606a2.127 2.127 0 0 1 1.458-.7c1.085-.071 2.022.645 2.158 1.62.197-.054.403-.09.616-.104 1.582-.104 2.944.989 3.042 2.441" fill="#fdfcef"/><path d="M87.231 37.556l.017-.001a.25.25 0 0 0 .233-.266c-.107-1.587-1.588-2.789-3.308-2.674a3.157 3.157 0 0 0-.409.053c-.274-.968-1.256-1.645-2.366-1.567a2.395 2.395 0 0 0-1.164.382c0-.019-.002-.037-.003-.056-.12-1.795-1.787-3.16-3.742-3.021a.25.25 0 0 0-.233.266c.009.138.124.255.266.232 1.651-.105 3.108 1.037 3.21 2.557.012.184.004.37-.023.553a.25.25 0 0 0 .434.203c.323-.365.78-.584 1.287-.617.951-.034 1.775.556 1.894 1.404.01.071.05.135.11.175.06.039.133.051.204.032a2.99 2.99 0 0 1 .567-.097c1.44-.092 2.687.896 2.775 2.209a.253.253 0 0 0 .251.233z" fill="#472b29"/><path d="M59.932 32.323c1.699-.801 3.664-.234 4.389 1.267.09.186.157.379.201.574" fill="#fdfcef"/><path d="M64.522 34.414a.25.25 0 0 0 .244-.306 2.932 2.932 0 0 0-.219-.627c-.783-1.621-2.902-2.239-4.721-1.385a.25.25 0 0 0-.12.333.252.252 0 0 0 .333.12c1.574-.744 3.394-.227 4.058 1.149.08.165.141.34.182.521a.249.249 0 0 0 .243.195z" fill="#472b29"/><path d="M31.875 75.3a3.178 3.178 0 0 1-3.175-3.175v-37.25a3.178 3.178 0 0 1 3.175-3.175h36.25a3.178 3.178 0 0 1 3.175 3.175v37.25a3.178 3.178 0 0 1-3.175 3.175h-36.25z" fill="#fffef4"/><path d="M68.125 32.4a2.477 2.477 0 0 1 2.475 2.475v37.25a2.477 2.477 0 0 1-2.475 2.475h-36.25a2.477 2.477 0 0 1-2.475-2.475v-37.25a2.477 2.477 0 0 1 2.475-2.475h36.25m0-1.4h-36.25A3.887 3.887 0 0 0 28 34.875v37.25A3.887 3.887 0 0 0 31.875 76h36.25A3.887 3.887 0 0 0 72 72.125v-37.25A3.887 3.887 0 0 0 68.125 31z" fill="#472b29"/><path fill="#88cdd7" d="M33.5 54.5h7v8h-7z"/><path d="M41 63h-8v-9h8v9zm-7-1h6v-7h-6v7z" fill="#472b29"/><path fill="#88cdd7" d="M59.5 54.5h7v8h-7z"/><path d="M67 63h-8v-9h8v9zm-7-1h6v-7h-6v7z" fill="#472b29"/><path d="M57.529 50.3L50 39.258 42.471 50.3H29.687a2.99 2.99 0 0 1-2.987-2.987V34.688a2.99 2.99 0 0 1 2.987-2.987h40.625a2.99 2.99 0 0 1 2.987 2.987v12.625a2.99 2.99 0 0 1-2.987 2.987H57.529z" fill="#ea5167"/><path d="M70.312 32.4a2.29 2.29 0 0 1 2.287 2.288v12.625a2.29 2.29 0 0 1-2.287 2.288H57.899l-6.742-9.889L50 38.015l-1.157 1.697-6.742 9.888H29.687a2.29 2.29 0 0 1-2.287-2.288V34.688a2.29 2.29 0 0 1 2.287-2.288h40.625m0-1.4H29.687A3.698 3.698 0 0 0 26 34.688v12.625A3.698 3.698 0 0 0 29.687 51H42.84L50 40.5 57.159 51h13.153A3.698 3.698 0 0 0 74 47.313V34.688A3.698 3.698 0 0 0 70.312 31z" fill="#472b29"/><path d="M68.187 74.563H31.75a2.313 2.313 0 0 1-2.313-2.313V67.5H70.5v4.75a2.313 2.313 0 0 1-2.313 2.313z" fill="#bebacb"/><path d="M65.5 67.958h-3.583a.5.5 0 0 1 0-1H65.5a.5.5 0 0 1 0 1zM71.5 67.958h-3.583a.5.5 0 0 1 0-1H71.5a.5.5 0 0 1 0 1zM35.5 57.75h-2a.25.25 0 0 1 0-.5h2a.25.25 0 0 1 0 .5zM40.5 57.75h-4a.25.25 0 0 1 0-.5h4a.25.25 0 0 1 0 .5zM62.5 46.75h-4a.25.25 0 0 1 0-.5h4a.25.25 0 0 1 0 .5zM73.5 46.75h-9.25a.25.25 0 0 1 0-.5h9.25a.25.25 0 0 1 0 .5zM41.375 46.75h-9.938a.25.25 0 0 1 0-.5h9.938a.25.25 0 0 1 0 .5zM30.313 46.75h-3.75a.25.25 0 0 1 0-.5h3.75a.25.25 0 0 1 0 .5z" fill="#472b29"/><g><path d="M44.063 42.688a.251.251 0 0 1-.206-.394l5.78-8.258a.251.251 0 0 1 .411.287l-5.78 8.258a.253.253 0 0 1-.205.107z" fill="#472b29"/></g><g><path d="M41.313 46.75a.254.254 0 0 1-.146-.047.253.253 0 0 1-.057-.35l2.03-2.82a.254.254 0 0 1 .35-.057.253.253 0 0 1 .057.35l-2.03 2.82a.253.253 0 0 1-.204.104z" fill="#472b29"/></g><g><path d="M55.718 42.688a.252.252 0 0 1-.205-.106l-5.78-8.258a.25.25 0 1 1 .411-.287l5.78 8.258a.25.25 0 0 1-.206.393z" fill="#472b29"/></g><g><path d="M58.468 46.75a.25.25 0 0 1-.203-.104l-2.03-2.82a.251.251 0 0 1 .407-.293l2.03 2.82a.252.252 0 0 1-.204.397z" fill="#472b29"/></g><g><path d="M61.5 57.75h-2a.25.25 0 0 1 0-.5h2a.25.25 0 0 1 0 .5z" fill="#472b29"/></g><g><path d="M66.5 57.75h-4a.25.25 0 0 1 0-.5h4a.25.25 0 0 1 0 .5z" fill="#472b29"/></g><g><path d="M58.501 68l-29.585-.037a.5.5 0 0 1 .001-1h.001L58.502 67a.5.5 0 0 1-.001 1z" fill="#472b29"/></g><g><path d="M54.5 75V64.104c0-2.542-1.995-4.604-4.455-4.604h-.09c-2.46 0-4.455 2.061-4.455 4.604V75h9z" fill="#c67d40"/><path d="M55 75.5H45V64.104C45 61.289 47.223 59 49.955 59 52.777 59 55 61.289 55 64.104V75.5zm-9-1h8V64.104C54 61.841 52.226 60 50.045 60 47.774 60 46 61.841 46 64.104V74.5z" fill="#472b29"/></g><g><path d="M34.178 82.287h3.54c2.11 0 3.821-1.674 3.821-3.739 0-1.802-1.302-3.305-3.035-3.66.02-.158.034-.317.034-.48 0-2.139-1.772-3.873-3.957-3.873-1.29 0-2.433.607-3.155 1.543-.185-2.381-2.358-4.218-4.9-3.913-1.859.223-3.397 1.629-3.739 3.431a4.252 4.252 0 0 0 .011 1.665 2.746 2.746 0 0 0-1.998-.856c-1.446 0-2.627 1.102-2.72 2.494a3.745 3.745 0 0 0-2.123.143c-1.438.528-2.462 1.853-2.522 3.356-.085 2.133 1.657 3.889 3.818 3.889h8.808m1.64 0h.36" fill="#fdfcef"/><path d="M37.718 82.788h-3.54a.5.5 0 0 1 0-1h3.54c1.831 0 3.321-1.453 3.321-3.239 0-1.524-1.108-2.858-2.636-3.17a.501.501 0 0 1-.396-.554c.018-.137.03-.275.03-.417 0-1.86-1.551-3.373-3.457-3.373a3.458 3.458 0 0 0-2.76 1.349.5.5 0 0 1-.894-.266 3.717 3.717 0 0 0-1.369-2.604c-.829-.68-1.885-.979-2.973-.853-1.646.197-3.006 1.442-3.307 3.027-.094.495-.091.99.009 1.472a.5.5 0 0 1-.852.445 2.233 2.233 0 0 0-1.635-.7c-1.169 0-2.145.891-2.221 2.027a.5.5 0 0 1-.604.455 3.215 3.215 0 0 0-1.846.125c-1.262.463-2.144 1.631-2.195 2.905a3.176 3.176 0 0 0 .895 2.346 3.332 3.332 0 0 0 2.423 1.024h8.807a.5.5 0 0 1 0 1h-8.807a4.378 4.378 0 0 1-3.144-1.331 4.167 4.167 0 0 1-1.173-3.078c.067-1.675 1.212-3.204 2.849-3.806a4.235 4.235 0 0 1 1.88-.244c.344-1.396 1.629-2.424 3.135-2.424.493 0 .977.113 1.414.323.009-.242.037-.484.083-.727.381-2.009 2.096-3.585 4.17-3.833a4.884 4.884 0 0 1 3.726 1.071 4.725 4.725 0 0 1 1.546 2.302 4.464 4.464 0 0 1 2.842-1.007c2.458 0 4.457 1.962 4.457 4.373l-.001.103c1.764.555 3.003 2.188 3.003 4.038.001 2.339-1.937 4.241-4.32 4.241zm-9.657 0h-.36a.5.5 0 0 1 0-1h.36a.5.5 0 0 1 0 1z" fill="#472b29"/><g><path d="M36.011 76.984a.25.25 0 0 1-.244-.305c.037-.164.094-.325.17-.479.604-1.224 2.272-1.677 3.722-1.007a.25.25 0 1 1-.21.453c-1.201-.556-2.577-.208-3.063.774a1.656 1.656 0 0 0-.13.367.252.252 0 0 1-.245.197z" fill="#472b29"/></g><g><path d="M30.852 82.788h-1.107a.5.5 0 0 1 0-1h1.107a.5.5 0 0 1 0 1z" fill="#472b29"/></g></g></svg>
